<mxfile host="65bd71144e">
    <diagram id="42m3AljbQXq8zMNze-vE" name="ページ1">
        <mxGraphModel dx="1386" dy="827" grid="1" gridSize="10" guides="1" tooltips="1" connect="1" arrows="1" fold="1" page="1" pageScale="1" pageWidth="900" pageHeight="1600" math="0" shadow="0">
            <root>
                <mxCell id="0"/>
                <mxCell id="1" parent="0"/>
                <mxCell id="2" value="X番目に作ったよ...&lt;br&gt;&lt;b&gt;Nonce&amp;nbsp; (EOA)&lt;/b&gt;" style="whiteSpace=wrap;html=1;align=center;verticalAlign=middle;treeFolding=1;treeMoving=1;newEdgeStyle={&quot;edgeStyle&quot;:&quot;elbowEdgeStyle&quot;,&quot;startArrow&quot;:&quot;none&quot;,&quot;endArrow&quot;:&quot;none&quot;};strokeWidth=3;strokeColor=#3399FF;" vertex="1" parent="1">
                    <mxGeometry x="240" y="350" width="170" height="60" as="geometry"/>
                </mxCell>
                <mxCell id="3" value="" style="edgeStyle=elbowEdgeStyle;elbow=vertical;sourcePerimeterSpacing=0;targetPerimeterSpacing=0;startArrow=block;endArrow=none;rounded=0;curved=0;strokeWidth=3;strokeColor=none;startFill=1;" edge="1" target="2" parent="1">
                    <mxGeometry relative="1" as="geometry">
                        <mxPoint x="210" y="470" as="sourcePoint"/>
                    </mxGeometry>
                </mxCell>
                <mxCell id="4" value="私が作ったよ...&lt;br&gt;&lt;b&gt;Ethereum Address (EOA)&lt;/b&gt;" style="whiteSpace=wrap;html=1;align=center;verticalAlign=middle;treeFolding=1;treeMoving=1;newEdgeStyle={&quot;edgeStyle&quot;:&quot;elbowEdgeStyle&quot;,&quot;startArrow&quot;:&quot;none&quot;,&quot;endArrow&quot;:&quot;none&quot;};strokeWidth=3;strokeColor=#3399FF;" vertex="1" collapsed="1" parent="1">
                    <mxGeometry x="20" y="350" width="170" height="60" as="geometry"/>
                </mxCell>
                <mxCell id="5" value="" style="edgeStyle=elbowEdgeStyle;elbow=vertical;sourcePerimeterSpacing=0;targetPerimeterSpacing=0;startArrow=block;endArrow=none;rounded=0;curved=0;strokeWidth=3;strokeColor=#3399FF;startFill=1;exitX=0.5;exitY=0;exitDx=0;exitDy=0;" edge="1" parent="1" target="4" source="7">
                    <mxGeometry relative="1" as="geometry">
                        <mxPoint x="210" y="480" as="sourcePoint"/>
                    </mxGeometry>
                </mxCell>
                <mxCell id="7" value="ユニークなアドレスになるよ...&lt;br&gt;&lt;b&gt;Ethereum Address&amp;nbsp; (CA)&lt;/b&gt;" style="rounded=0;whiteSpace=wrap;html=1;strokeColor=#3399FF;strokeWidth=3;" vertex="1" parent="1">
                    <mxGeometry x="120" y="490" width="200" height="60" as="geometry"/>
                </mxCell>
                <mxCell id="8" value="" style="edgeStyle=elbowEdgeStyle;elbow=vertical;sourcePerimeterSpacing=0;targetPerimeterSpacing=0;startArrow=block;endArrow=none;rounded=0;curved=0;strokeWidth=3;strokeColor=#3399FF;startFill=1;exitX=0.5;exitY=0;exitDx=0;exitDy=0;entryX=0.5;entryY=1;entryDx=0;entryDy=0;" edge="1" parent="1" source="7" target="2">
                    <mxGeometry relative="1" as="geometry">
                        <mxPoint x="210" y="470" as="sourcePoint"/>
                        <mxPoint x="290" y="420" as="targetPoint"/>
                        <Array as="points">
                            <mxPoint x="250" y="450"/>
                        </Array>
                    </mxGeometry>
                </mxCell>
                <mxCell id="13" value="ハッシュ関数 (Keccak-256)" style="shape=note;whiteSpace=wrap;html=1;backgroundOutline=1;fontColor=#000000;darkOpacity=0.05;fillColor=#3399FF;strokeColor=none;fillStyle=solid;direction=west;gradientDirection=north;gradientColor=#3399FF;shadow=1;size=20;pointerEvents=1;strokeWidth=3;" vertex="1" parent="1">
                    <mxGeometry x="380" y="440" width="180" height="60" as="geometry"/>
                </mxCell>
                <mxCell id="14" value="" style="endArrow=none;html=1;strokeColor=#3399FF;strokeWidth=2;entryX=0;entryY=0;entryDx=180;entryDy=40;entryPerimeter=0;" edge="1" parent="1" target="13">
                    <mxGeometry width="50" height="50" relative="1" as="geometry">
                        <mxPoint x="240" y="470" as="sourcePoint"/>
                        <mxPoint x="380" y="530" as="targetPoint"/>
                    </mxGeometry>
                </mxCell>
            </root>
        </mxGraphModel>
    </diagram>
</mxfile>